<?xml version="1.0" encoding="utf-8"?>
<!-- Generator: Adobe Illustrator 22.1.0, SVG Export Plug-In . SVG Version: 6.00 Build 0)  -->
<svg version="1.1" id="Layer_1" xmlns="http://www.w3.org/2000/svg" xmlns:xlink="http://www.w3.org/1999/xlink" x="0px" y="0px"
	 viewBox="0 0 44 70" style="enable-background:new 0 0 44 70;" xml:space="preserve">
<style type="text/css">
	.st0{fill:#46C8F0;}
</style>
<title>csv</title>
<path class="st0" d="M34.5,55h-25C5.4,55,2,58.4,2,62.5S5.4,70,9.5,70h25c4.1,0,7.5-3.4,7.5-7.5S38.6,55,34.5,55z M13.6,63.4
	c0,0.6,0.2,1.3,0.6,1.7c0.4,0.4,0.9,0.6,1.5,0.6c0.4,0,0.8-0.1,1.2-0.3c0.3-0.2,0.6-0.6,0.7-1c0-0.1,0.1-0.2,0.1-0.2
	c0.1,0,0.1,0,0.2,0h0.2c0.1,0,0.2,0,0.2,0.1c0.1,0.1,0.1,0.1,0.1,0.2c0,0.4-0.1,0.7-0.3,1c-0.2,0.3-0.5,0.6-0.9,0.8
	c-0.5,0.2-1,0.3-1.5,0.3c-0.8,0-1.5-0.2-2.1-0.8c-0.5-0.6-0.8-1.4-0.8-2.2v-1c0-0.8,0.3-1.6,0.8-2.2c0.6-0.6,1.3-0.8,2.1-0.8
	c0.5,0,1,0.1,1.5,0.3c0.4,0.2,0.7,0.4,0.9,0.8c0.2,0.3,0.3,0.6,0.3,1c0,0.1,0,0.1-0.1,0.2c-0.1,0.1-0.1,0.1-0.2,0.1H18
	c-0.1,0-0.1,0-0.2-0.1c-0.1-0.1-0.1-0.1-0.1-0.2c-0.1-0.4-0.4-0.8-0.7-1c-0.4-0.2-0.8-0.3-1.2-0.3c-0.6,0-1.1,0.2-1.5,0.6
	c-0.4,0.5-0.6,1.1-0.6,1.7v0.9L13.6,63.4z M24.6,65.5c-0.2,0.3-0.5,0.6-0.9,0.7c-0.4,0.2-0.9,0.3-1.4,0.3c-0.5,0-1-0.1-1.4-0.3
	c-0.3-0.2-0.6-0.4-0.9-0.7c-0.2-0.2-0.3-0.4-0.3-0.6c0-0.1,0-0.1,0.1-0.2c0.1,0,0.1-0.1,0.2-0.1h0.2c0,0,0.1,0,0.1,0
	c0.1,0,0.1,0.1,0.1,0.1c0.2,0.3,0.4,0.5,0.7,0.6c0.4,0.2,0.7,0.2,1.1,0.2c0.5,0,0.9-0.1,1.3-0.3c0.3-0.2,0.5-0.5,0.5-0.9
	c0-0.2-0.1-0.4-0.2-0.6c-0.2-0.2-0.4-0.3-0.6-0.4c-0.4-0.2-0.9-0.3-1.3-0.4c-0.6-0.1-1.1-0.3-1.6-0.7c-0.3-0.3-0.4-0.7-0.4-1.2
	c0-0.3,0.1-0.6,0.3-0.9c0.2-0.3,0.5-0.5,0.8-0.7c0.4-0.2,0.8-0.3,1.3-0.3c0.5,0,0.9,0.1,1.3,0.3c0.3,0.1,0.6,0.3,0.8,0.6
	c0.1,0.2,0.2,0.4,0.3,0.6c0,0.1,0,0.1-0.1,0.2c-0.1,0-0.1,0.1-0.2,0.1h-0.2c-0.1,0-0.2-0.1-0.3-0.2c-0.2-0.2-0.4-0.4-0.6-0.6
	c-0.3-0.1-0.7-0.2-1-0.2c-0.4,0-0.8,0.1-1.1,0.3c-0.3,0.2-0.4,0.5-0.4,0.8c0,0.2,0,0.4,0.1,0.5c0.2,0.2,0.4,0.3,0.6,0.4
	c0.4,0.1,0.8,0.3,1.3,0.3c0.6,0.1,1.2,0.4,1.7,0.7c0.3,0.3,0.5,0.8,0.5,1.2C24.9,64.8,24.8,65.2,24.6,65.5z M31.7,60l-2.4,6
	c-0.1,0.2-0.3,0.3-0.5,0.3h-0.2c-0.2,0-0.4-0.1-0.5-0.3l-2.4-6v-0.1c0-0.1,0.1-0.3,0.3-0.3h0.3c0.1,0,0.1,0,0.2,0.1
	c0,0,0.1,0.1,0.1,0.1l2.2,5.6l2.2-5.6c0,0,0.1-0.1,0.1-0.1c0.1,0,0.1-0.1,0.2-0.1h0.3c0.1,0,0.1,0,0.2,0.1c0,0,0.1,0.1,0.1,0.2
	L31.7,60z"/>
<path class="st0" d="M17.4,0H2.8C1.2,0,0,1.2,0,2.8v14.7c0,1.5,1.2,2.8,2.8,2.8h11c0.1,0,0.2,0,0.4-0.1c0.1,0,0.2-0.1,0.3-0.2l0,0
	l5.5-5.5l0,0c0.1-0.1,0.2-0.3,0.2-0.4c0,0,0-0.1,0-0.1c0,0,0-0.1,0-0.1v-11C20.1,1.3,18.9,0,17.4,0z M1.8,17.4V2.8
	c0-0.5,0.4-0.9,0.9-0.9l0,0h14.7c0.5,0,0.9,0.4,0.9,0.9v10.1h-4.6c-0.5,0-0.9,0.4-0.9,0.9l0,0v4.6H2.8C2.2,18.3,1.8,17.9,1.8,17.4z
	 M14.7,17v-2.3H17L14.7,17z"/>
<path class="st0" d="M41.3,0H26.6c-1.5,0-2.8,1.2-2.8,2.8v14.7c0,1.5,1.2,2.7,2.8,2.8h14.7c1.5,0,2.8-1.2,2.8-2.8V2.8
	C44,1.2,42.8,0,41.3,0z M42.2,17.4c0,0.5-0.4,0.9-0.9,0.9H26.6c-0.5,0-0.9-0.4-0.9-0.9V2.8c0-0.5,0.4-0.9,0.9-0.9h14.7
	c0.5,0,0.9,0.4,0.9,0.9V17.4z"/>
<path class="st0" d="M17.4,23.8H2.8c-1.5,0-2.8,1.2-2.8,2.8v14.7C0,42.8,1.2,44,2.8,44h14.7c1.5,0,2.8-1.2,2.8-2.8V26.6
	C20.2,25.1,18.9,23.8,17.4,23.8z M18.3,41.3c0,0.5-0.4,0.9-0.9,0.9H2.8c-0.5,0-0.9-0.4-0.9-0.9V26.6c0-0.5,0.4-0.9,0.9-0.9h14.7
	c0.5,0,0.9,0.4,0.9,0.9V41.3z"/>
<path class="st0" d="M6.4,7.3h7.3c0.5,0.1,1-0.3,1-0.8c0.1-0.5-0.3-1-0.8-1c-0.1,0-0.1,0-0.2,0H6.4c-0.5-0.1-1,0.3-1,0.8
	c-0.1,0.5,0.3,1,0.8,1C6.3,7.3,6.4,7.3,6.4,7.3z"/>
<path class="st0" d="M6.4,11h7.3c0.5,0.1,1-0.3,1-0.8c0.1-0.5-0.3-1-0.8-1c-0.1,0-0.1,0-0.2,0H6.4c-0.5-0.1-1,0.3-1,0.8
	c-0.1,0.5,0.3,1,0.8,1C6.3,11,6.4,11,6.4,11z"/>
<path class="st0" d="M10.1,12.8H6.4c-0.5,0-0.9,0.4-0.9,0.9s0.4,0.9,0.9,0.9l0,0h3.7c0.5,0,0.9-0.4,0.9-0.9S10.6,12.8,10.1,12.8z"/>
<path class="st0" d="M44,30c0-0.2-0.1-0.3-0.2-0.4l0,0l-5.5-5.5l0,0c-0.1-0.1-0.3-0.2-0.4-0.2h-0.1h-0.1h-11c-1.5,0-2.7,1.2-2.8,2.8
	v14.6c0,1.5,1.2,2.7,2.7,2.8h14.7c1.5,0,2.8-1.2,2.8-2.8v-11c0,0,0-0.1,0-0.1V30z M38.5,27l2.4,2.4h-2.4V27z M41.3,42.2H26.6
	c-0.5,0-0.9-0.4-0.9-0.9V26.6c0-0.5,0.4-0.9,0.9-0.9h10.1v4.6c0,0.5,0.4,0.9,0.9,0.9h4.6v10.1C42.2,41.8,41.8,42.2,41.3,42.2
	L41.3,42.2z"/>
<path class="st0" d="M37.6,36.7h-7.3c-0.5-0.1-1,0.3-1,0.8c-0.1,0.5,0.3,1,0.8,1c0.1,0,0.1,0,0.2,0h7.3c0.5,0.1,1-0.3,1-0.8
	c0.1-0.5-0.3-1-0.8-1C37.7,36.7,37.6,36.7,37.6,36.7z"/>
<path class="st0" d="M37.6,33h-7.3c-0.5-0.1-1,0.3-1,0.8c-0.1,0.5,0.3,1,0.8,1c0.1,0,0.1,0,0.2,0h7.3c0.5,0.1,1-0.3,1-0.8
	c0.1-0.5-0.3-1-0.8-1C37.7,33,37.6,33,37.6,33z"/>
<path class="st0" d="M30.3,31.2h3.7c0.5,0,0.9-0.4,0.9-0.9s-0.4-0.9-0.9-0.9h-3.7c-0.5,0-0.9,0.4-0.9,0.9S29.7,31.2,30.3,31.2
	L30.3,31.2z"/>
<path class="st0" d="M37.6,5.5h-7.3c-0.5-0.1-1,0.3-1,0.8c-0.1,0.5,0.3,1,0.8,1c0.1,0,0.1,0,0.2,0h7.3c0.5,0.1,1-0.3,1-0.8
	c0.1-0.5-0.3-1-0.8-1C37.7,5.5,37.6,5.5,37.6,5.5z"/>
<path class="st0" d="M37.6,9.2h-7.3c-0.5-0.1-1,0.3-1,0.8c-0.1,0.5,0.3,1,0.8,1c0.1,0,0.1,0,0.2,0h7.3c0.5,0.1,1-0.3,1-0.8
	c0.1-0.5-0.3-1-0.8-1C37.7,9.2,37.6,9.2,37.6,9.2z"/>
<path class="st0" d="M33.9,12.8h-3.7c-0.5,0-0.9,0.4-0.9,0.9s0.4,0.9,0.9,0.9l0,0h3.7c0.5,0,0.9-0.4,0.9-0.9S34.4,12.8,33.9,12.8z"
	/>
<path class="st0" d="M13.8,29.3H6.4c-0.5,0-0.9,0.4-0.9,0.9s0.4,0.9,0.9,0.9l0,0h7.3c0.5,0,0.9-0.4,0.9-0.9S14.3,29.3,13.8,29.3z"/>
<path class="st0" d="M13.8,33H6.4c-0.5-0.1-1,0.3-1,0.8c-0.1,0.5,0.3,1,0.8,1c0.1,0,0.1,0,0.2,0h7.3c0.5,0.1,1-0.3,1-0.8
	c0.1-0.5-0.3-1-0.8-1C13.9,33,13.8,33,13.8,33z"/>
<path class="st0" d="M10.1,36.7H6.4c-0.5-0.1-1,0.3-1,0.8c-0.1,0.5,0.3,1,0.8,1c0.1,0,0.1,0,0.2,0h3.7c0.5,0.1,1-0.3,1-0.8
	c0.1-0.5-0.3-1-0.8-1C10.2,36.7,10.1,36.7,10.1,36.7z"/>
</svg>
