<svg xmlns="http://www.w3.org/2000/svg" viewBox="0 0 44 70"><defs><style>.cls-1{fill:#d9d9d9;}.cls-2{fill:none;}</style></defs><title>csv_1</title><g id="Layer_2" data-name="Layer 2"><g id="Content"><path class="cls-1" d="M34.5,55H9.5a7.5,7.5,0,0,0,0,15h25a7.5,7.5,0,0,0,0-15ZM13.65,63.38a2.56,2.56,0,0,0,.6,1.74,1.94,1.94,0,0,0,1.48.56,2.17,2.17,0,0,0,1.19-.3,2,2,0,0,0,.73-1,.61.61,0,0,1,.12-.22.31.31,0,0,1,.19,0h.18a.28.28,0,0,1,.21.08.22.22,0,0,1,.07.2,1.9,1.9,0,0,1-.32,1,2.17,2.17,0,0,1-.9.78,3.16,3.16,0,0,1-1.47.31,2.71,2.71,0,0,1-2.09-.79,3.25,3.25,0,0,1-.78-2.2v-1a3.24,3.24,0,0,1,.78-2.2,2.71,2.71,0,0,1,2.09-.79,3.29,3.29,0,0,1,1.47.3,2.32,2.32,0,0,1,.9.78,2,2,0,0,1,.32,1,.23.23,0,0,1-.07.2.32.32,0,0,1-.21.08H18a.25.25,0,0,1-.19-.06.64.64,0,0,1-.12-.21,2,2,0,0,0-.73-1,2.09,2.09,0,0,0-1.19-.31,2,2,0,0,0-1.48.57,2.53,2.53,0,0,0-.6,1.73v.91Zm10.92,2.1a2,2,0,0,1-.88.7,3.5,3.5,0,0,1-1.4.26,3.22,3.22,0,0,1-1.43-.29A2.54,2.54,0,0,1,20,65.5a1.07,1.07,0,0,1-.29-.58.23.23,0,0,1,.09-.19.31.31,0,0,1,.2-.07h.19a.33.33,0,0,1,.15,0,.6.6,0,0,1,.14.14,2.07,2.07,0,0,0,.69.63,2.36,2.36,0,0,0,1.13.22,2.5,2.5,0,0,0,1.3-.3,1,1,0,0,0,.49-.88.84.84,0,0,0-.2-.57,1.53,1.53,0,0,0-.65-.38,10.62,10.62,0,0,0-1.33-.37,3.18,3.18,0,0,1-1.58-.72,1.64,1.64,0,0,1-.43-1.16,1.69,1.69,0,0,1,.27-.91,2,2,0,0,1,.79-.7,2.77,2.77,0,0,1,1.27-.27,2.93,2.93,0,0,1,1.32.27,2.21,2.21,0,0,1,.81.61,1.14,1.14,0,0,1,.26.57.24.24,0,0,1-.08.19.29.29,0,0,1-.2.07h-.2a.31.31,0,0,1-.28-.16,2,2,0,0,0-.6-.6,2.08,2.08,0,0,0-1-.2,1.84,1.84,0,0,0-1.14.31,1,1,0,0,0-.39.82.84.84,0,0,0,.15.52,1.43,1.43,0,0,0,.59.39,8.7,8.7,0,0,0,1.25.35,3.94,3.94,0,0,1,1.7.73,1.58,1.58,0,0,1,.49,1.21A1.72,1.72,0,0,1,24.57,65.48ZM31.74,60l-2.4,6a.48.48,0,0,1-.49.33h-.21a.49.49,0,0,1-.49-.33l-2.39-6,0-.14a.27.27,0,0,1,.26-.26h.27a.29.29,0,0,1,.19.06.5.5,0,0,1,.1.13l2.2,5.62,2.19-5.62a.5.5,0,0,1,.1-.13.29.29,0,0,1,.19-.06h.27a.29.29,0,0,1,.19.08.24.24,0,0,1,.07.18Z"/><rect class="cls-2" width="44" height="44"/><path class="cls-1" d="M17.42,0H2.75A2.75,2.75,0,0,0,0,2.75V17.42a2.75,2.75,0,0,0,2.75,2.75h11a1,1,0,0,0,.35-.07,1.27,1.27,0,0,0,.27-.18l0,0,5.5-5.5h0a.91.91,0,0,0,.22-.41.6.6,0,0,0,0-.12.53.53,0,0,0,0-.12v-11A2.75,2.75,0,0,0,17.42,0ZM1.83,17.42V2.75a.92.92,0,0,1,.92-.92H17.42a.92.92,0,0,1,.91.92V12.83H13.75a.92.92,0,0,0-.92.92v4.58H2.75A.92.92,0,0,1,1.83,17.42ZM14.67,17V14.67H17Z"/><path class="cls-1" d="M41.25,0H26.58a2.75,2.75,0,0,0-2.75,2.75V17.42a2.76,2.76,0,0,0,2.75,2.75H41.25A2.75,2.75,0,0,0,44,17.42V2.75A2.75,2.75,0,0,0,41.25,0Zm.92,17.42a.92.92,0,0,1-.92.91H26.58a.91.91,0,0,1-.91-.91V2.75a.92.92,0,0,1,.91-.92H41.25a.92.92,0,0,1,.92.92Z"/><path class="cls-1" d="M17.42,23.83H2.75A2.75,2.75,0,0,0,0,26.58V41.25A2.75,2.75,0,0,0,2.75,44H17.42a2.75,2.75,0,0,0,2.75-2.75V26.58A2.76,2.76,0,0,0,17.42,23.83Zm.91,17.42a.92.92,0,0,1-.91.92H2.75a.92.92,0,0,1-.92-.92V26.58a.92.92,0,0,1,.92-.91H17.42a.91.91,0,0,1,.91.91Z"/><path class="cls-1" d="M6.42,7.33h7.33a.92.92,0,1,0,0-1.83H6.42a.92.92,0,1,0,0,1.83Z"/><path class="cls-1" d="M6.42,11h7.33a.92.92,0,1,0,0-1.83H6.42a.92.92,0,1,0,0,1.83Z"/><path class="cls-1" d="M10.08,12.83H6.42a.92.92,0,0,0,0,1.84h3.66a.92.92,0,0,0,0-1.84Z"/><path class="cls-1" d="M44,30a.91.91,0,0,0-.22-.41h0l-5.5-5.5h0a.91.91,0,0,0-.41-.22l-.12,0-.12,0h-11a2.76,2.76,0,0,0-2.75,2.75V41.25A2.75,2.75,0,0,0,26.58,44H41.25A2.75,2.75,0,0,0,44,41.25v-11s0-.08,0-.12ZM38.5,27l2.37,2.37H38.5Zm2.75,15.21H26.58a.92.92,0,0,1-.91-.92V26.58a.91.91,0,0,1,.91-.91H36.67v4.58a.92.92,0,0,0,.91.92h4.59V41.25A.92.92,0,0,1,41.25,42.17Z"/><path class="cls-1" d="M37.58,36.67H30.25a.92.92,0,1,0,0,1.83h7.33a.92.92,0,1,0,0-1.83Z"/><path class="cls-1" d="M37.58,33H30.25a.92.92,0,1,0,0,1.83h7.33a.92.92,0,1,0,0-1.83Z"/><path class="cls-1" d="M30.25,31.17h3.67a.92.92,0,0,0,0-1.84H30.25a.92.92,0,0,0,0,1.84Z"/><path class="cls-1" d="M37.58,5.5H30.25a.92.92,0,1,0,0,1.83h7.33a.92.92,0,1,0,0-1.83Z"/><path class="cls-1" d="M37.58,9.17H30.25a.92.92,0,1,0,0,1.83h7.33a.92.92,0,1,0,0-1.83Z"/><path class="cls-1" d="M33.92,12.83H30.25a.92.92,0,0,0,0,1.84h3.67a.92.92,0,0,0,0-1.84Z"/><path class="cls-1" d="M13.75,29.33H6.42a.92.92,0,1,0,0,1.84h7.33a.92.92,0,0,0,0-1.84Z"/><path class="cls-1" d="M13.75,33H6.42a.92.92,0,1,0,0,1.83h7.33a.92.92,0,1,0,0-1.83Z"/><path class="cls-1" d="M10.08,36.67H6.42a.92.92,0,1,0,0,1.83h3.66a.92.92,0,1,0,0-1.83Z"/></g></g></svg>